<?xml version="1.0" encoding="UTF-8" standalone="no"?>
<!-- Created with Inkscape (http://www.inkscape.org/) -->

<svg
   xmlns:i="&amp;ns_ai;"
   xmlns:dc="http://purl.org/dc/elements/1.1/"
   xmlns:cc="http://creativecommons.org/ns#"
   xmlns:rdf="http://www.w3.org/1999/02/22-rdf-syntax-ns#"
   xmlns:svg="http://www.w3.org/2000/svg"
   xmlns="http://www.w3.org/2000/svg"
   xmlns:xlink="http://www.w3.org/1999/xlink"
   version="1.1"
   width="128"
   height="128"
   viewBox="0 0 128 128"
   id="Layer_1"
   xml:space="preserve"><metadata
     id="metadata68"><rdf:RDF><cc:Work
         rdf:about=""><dc:format>image/svg+xml</dc:format><dc:type
           rdf:resource="http://purl.org/dc/dcmitype/StillImage" /><dc:title></dc:title></cc:Work></rdf:RDF></metadata><defs
     id="defs66" /><switch
     transform="matrix(0.53554911,0,0,0.53554911,0.20714973,-0.70573038)"
     id="switch3"><g
       id="g7"><g
         id="g9"><g
           id="g11"><path
             d="m 40.897,118.754 c 0,-3.66 0.522,-6.237 1.516,-8.533 1.654,-3.413 3.527,-6.702 5.606,-9.853 -0.527,0.891 -0.849,1.923 -0.849,3.122 0,7.97 19.509,18.322 46.136,21.709 9.021,1.147 32.905,4.403 51.396,2.886 37.321,-3.075 45.617,-16.116 45.617,-24.595 0,-2.316 -1.258,-5.699 -2.504,-7.667 1.684,2.244 3.286,4.571 4.767,6.984 2.857,4.971 2.493,6.946 2.493,7.809 0,17.305 -32.209,28.608 -53.756,34.493 C 86.011,160.2 40.897,139.627 40.897,118.754 l 0,0 z M 58.535,94.498 c 0,7.802 11.36,20.283 44.263,20.283 19.511,0 35.262,-3.777 47.152,-7.729 19.057,-6.335 28.492,-14.076 28.157,-19.842 -0.062,-0.899 -0.403,-2.353 -1.467,-3.501 -4.234,-3.783 -8.84,-7.163 -13.761,-10.057 3.255,1.892 5.089,4.096 5.089,6.549 0,8.594 -20.994,16.478 -48.419,17.174 -27.427,0.708 -50.152,-6.04 -50.764,-14.62 -0.208,-2.838 1.842,-5.633 5.722,-8.107 -2.953,1.833 -5.801,3.844 -8.501,6.012 -7.635,6.335 -7.471,13.014 -7.471,13.838 z m 71.4,100.754 C 113.235,195.849 83.831,190.1 65.322,182.541 50.411,176.457 35.669,164.6 34.085,153.304 c 0.182,2.725 0.496,5.411 0.927,8.05 9.133,49.827 71.9,46.979 82.723,45.78 78.955,-8.76 85.75,-42.464 86.791,-49.136 0.176,-1.388 0.305,-2.775 0.401,-4.188 -1.397,8.88 -14.738,39.3 -74.992,41.442 l 0,0 z M 69.897,206.623 C 55.725,200.767 45.92,191.032 41.993,183.917 c 3.62,7.704 8.351,14.774 13.997,21.009 18.466,17.352 46.839,19.448 59.877,19.448 55.192,0 74.889,-29.005 79.348,-36.761 0.826,-1.564 1.603,-3.141 2.345,-4.763 -8.743,17.996 -54.038,54.186 -127.663,23.773 z m 133.651,-72.477 c 0,-1.38 -0.176,-4.128 -0.815,-6.941 -0.462,-1.904 -0.99,-3.782 -1.578,-5.641 1.045,3.489 0.867,5.92 0.867,6.863 0,4.245 -5.273,30.227 -57.16,34.943 -4.493,0.396 -37.456,0.916 -66.111,-6.332 -19.059,-4.831 -38.198,-14.145 -41.811,-27.087 -0.56,-2.018 -0.321,-3.883 0.125,-5.635 -1.453,5.181 -2.437,10.566 -2.891,16.106 0.331,13.624 12.162,29.511 33.852,36.352 24.76,7.797 39.969,8.049 75.979,0.028 60.107,-13.401 59.543,-39.716 59.543,-42.656 z"
             id="path13"
             style="fill:#3192c2" /><path
             d="m 141.307,145.108 c 1.458,-0.397 2.961,-0.824 4.505,-1.276 -6.638,-1.426 -13.688,-2.196 -21.006,-2.196 -13.885,0 -26.826,2.767 -37.754,7.541 15.667,2.173 34.294,1.377 54.255,-4.069 z m -7.093,-33.709 c 5.838,-1.278 11.079,-2.799 15.736,-4.35 2.541,-0.847 4.911,-1.716 7.111,-2.599 -6.533,-1.199 -12.353,-1.954 -16.279,-2.316 -14.92,-1.354 -37.135,2.889 -42.895,4.075 -1.774,0.361 -9.89,2.044 -19.77,5.492 2.317,0.689 4.887,1.285 7.695,1.77 8.955,-2.512 18.213,-3.941 27.01,-3.941 5.823,-0.001 13.257,0.618 21.392,1.869 z m 1.719,52.178 c -5.442,-0.031 -12.854,-0.26 -21.197,-0.929 -14.802,1.726 -27.375,8.343 -34.537,17.485 2.365,0.549 4.692,1.017 7.009,1.389 7.542,-8.283 20.303,-13.731 34.778,-13.731 10.555,0 20.207,2.895 27.575,7.695 2.885,-0.718 5.605,-1.486 8.175,-2.27 -5.879,-4.508 -13.382,-7.879 -21.803,-9.639 z m 48.565,-36.543 c 4.319,-3.19 7.628,-6.721 9.315,-10.603 -2.071,-1.282 -4.412,-2.471 -6.949,-3.57 -2.517,3.226 -6.634,6.414 -13.067,9.089 3.78,1.545 7.382,3.236 10.701,5.084 z m -18.959,10.069 c 4.531,-1.85 8.923,-3.883 12.87,-6.14 -4.094,-2.192 -8.86,-4.18 -14.403,-5.864 -5.354,1.322 -11.736,2.36 -19.305,2.983 -2.256,0.187 -4.589,0.301 -6.961,0.359 5.295,1.009 10.354,2.366 15.165,3.958 4.632,1.535 8.826,3.112 12.634,4.704 z m 10.109,19.43 c -3.807,1.543 -8.173,2.93 -13.159,4.093 3.62,2.172 6.87,4.646 9.688,7.358 4.058,-1.76 7.585,-3.587 10.664,-5.431 -2.163,-2.136 -4.583,-4.158 -7.193,-6.02 l 0,0 z M 63.74,117.649 c -6.696,3.279 -13.252,7.358 -18.506,12.333 0.8,1.023 1.704,2.028 2.717,3.012 5.752,-5.094 13.002,-9.636 21.028,-13.339 -1.844,-0.635 -3.589,-1.315 -5.239,-2.006 z M 85.069,158.5 c -2.12,-0.451 -4.23,-0.935 -6.316,-1.462 -1.325,-0.328 -2.652,-0.692 -3.98,-1.076 -6.941,4.805 -12.451,10.61 -16.021,17.065 2.189,1.101 4.527,2.104 7.005,2.975 2.06,-3.673 4.819,-7.087 8.216,-10.086 3.199,-2.817 6.94,-5.31 11.096,-7.416 z M 61.09,193.608 c 0,-4.084 0.706,-8.13 2.089,-11.991 -2.312,-1.016 -4.602,-2.175 -6.818,-3.45 -1.475,3.927 -2.266,8.043 -2.266,12.293 0,0.839 0.038,1.659 0.099,2.497 2.275,1.705 4.671,3.221 7.141,4.557 -0.157,-1.288 -0.245,-2.594 -0.245,-3.906 z m 46.547,-66.694 c -6.05,-0.635 -11.127,-1.31 -14.344,-1.713 -2.077,-0.264 -4.112,-0.571 -6.098,-0.914 -11.526,3.651 -21.63,9.146 -29.531,15.725 1.611,0.892 3.317,1.737 5.119,2.533 11.49,-8.361 27.194,-14.067 44.854,-15.631 z m -24.036,84.719 c -2.356,-0.747 -4.757,-1.562 -7.182,-2.458 1.941,4.147 4.913,7.957 8.694,11.241 3.15,0.869 6.272,1.556 9.282,2.085 -4.592,-2.971 -8.297,-6.678 -10.794,-10.868 z m 117.923,-88.872 -0.277,-0.867 0.186,0.682 0.091,0.185 0,0 z M 45.531,163.707 c 2.125,-5.47 5.594,-10.581 10.167,-15.139 -1.528,-0.796 -3,-1.619 -4.403,-2.485 -4.015,4.396 -7.101,9.121 -9.088,13.995 1.009,1.233 2.115,2.45 3.324,3.629 z m 142.325,-13.78 c 2.023,1.69 3.749,3.362 5.208,5.021 2.109,-1.983 3.792,-3.933 5.129,-5.786 -0.998,-1.72 -2.181,-3.476 -3.596,-5.215 -1.792,1.995 -4.004,4.021 -6.741,5.98 z M 55.009,198.083 c 0.742,3.123 1.912,6.123 3.436,9.02 3.05,2.534 6.314,4.705 9.699,6.558 -2.465,-3.302 -4.356,-6.855 -5.551,-10.591 -2.759,-1.557 -5.292,-3.235 -7.584,-4.987 z m 99.714,20.429 c 4.026,-1.36 7.688,-2.899 11.032,-4.554 1.275,-1.795 2.347,-3.691 3.194,-5.651 -2.788,1.397 -5.761,2.706 -8.923,3.867 -1.431,2.282 -3.206,4.407 -5.303,6.338 z m 7.66,-27.989 c 0.782,2.042 1.277,4.194 1.475,6.397 2.497,-0.942 4.842,-1.915 7.048,-2.904 -0.275,-1.991 -0.78,-3.915 -1.497,-5.788 -2.211,0.814 -4.557,1.584 -7.026,2.295 z M 177.625,89.841 c -3.928,-1.362 -8.604,-2.38 -13.835,-3.062 -6.104,4.676 -18.43,8.467 -33.784,9.958 9.661,0.967 21.412,2.63 32.634,5.247 8.483,-4.089 13.488,-8.386 14.985,-12.143 z M 69.524,85.121 c -3.84,1.613 -7.303,3.277 -10.25,4.924 -0.521,1.579 -0.673,2.869 -0.72,3.665 3.784,-1.95 8.294,-3.951 13.331,-5.883 -1.033,-0.87 -1.826,-1.77 -2.361,-2.706 z M 39.903,136.02 c -2.22,3.064 -3.927,6.407 -4.944,10.048 0.266,1.11 0.61,2.231 1.022,3.345 1.28,-3.635 3.415,-7.183 6.234,-10.561 -0.863,-0.92 -1.629,-1.863 -2.312,-2.832 z m 3.22,40.322 c 0,-2.448 0.269,-4.852 0.781,-7.204 -1.244,-1.157 -2.404,-2.343 -3.456,-3.543 -0.785,3.46 -0.994,6.962 -0.578,10.449 1.125,2.206 2.383,4.263 3.764,6.188 -0.332,-1.939 -0.511,-3.91 -0.511,-5.89 z m 21.582,-71.287 c 9.019,-4.097 20.109,-7.37 33.184,-8.73 -4.479,-0.579 -8.596,-1.383 -12.256,-2.357 -8.565,2.374 -16.622,5.213 -23.635,8.485 0.76,0.881 1.657,1.752 2.707,2.602 z m 128.772,73.737 c -0.46,-1.288 -0.99,-2.548 -1.586,-3.796 -2.751,2.508 -6.042,4.992 -9.955,7.315 0.602,1.571 1.087,3.183 1.436,4.822 4.12,-2.764 7.443,-5.585 10.105,-8.341 l 0,0 z m 9.233,-18.15 c -0.813,1.733 -1.863,3.64 -3.21,5.639 0.36,1.245 0.595,2.454 0.741,3.616 1.394,-2.424 2.332,-4.634 2.974,-6.532 -0.134,-0.857 -0.295,-1.779 -0.505,-2.723 l 0,0 z m 0.06,-33.267 c -0.189,-0.817 -0.392,-1.626 -0.613,-2.431 -0.125,-0.289 -0.26,-0.565 -0.41,-0.841 0.364,2.127 0.273,3.634 0.273,4.323 0,1.386 -0.559,5.111 -3.15,9.649 1.195,1.377 2.226,2.801 3.085,4.27 1.642,-4.227 1.588,-7.303 1.588,-8.207 0.005,-1.34 -0.159,-4.007 -0.773,-6.763 l 0,0 z M 80.007,199.007 c 0,-3.777 0.899,-7.385 2.548,-10.743 -2.12,-0.576 -4.202,-1.184 -6.227,-1.809 -1.617,3.533 -2.495,7.325 -2.495,11.27 0,1.779 0.178,3.519 0.518,5.225 2.12,0.664 4.242,1.233 6.354,1.736 -0.457,-1.842 -0.698,-3.748 -0.698,-5.679 z M 183.575,199 c -0.218,1.217 -0.501,2.442 -0.863,3.641 6.992,-6.22 10.802,-12.082 12.476,-14.991 l 0.174,-0.323 -0.063,-0.627 c -2.607,3.839 -6.531,8.136 -11.724,12.3 z M 167.85,79.151 c 3.426,1.391 6.545,3.121 9.298,5.225 -0.135,-0.211 -0.291,-0.429 -0.472,-0.624 -2.763,-2.478 -5.665,-4.78 -8.734,-6.881 -0.778,-0.482 -1.597,-0.934 -2.45,-1.358 1.271,1.13 2.078,2.348 2.358,3.638 z m -119.888,21.32 -0.724,1.101 0.41,-0.473 0.314,-0.628 z m 140.295,10.313 c 2.305,1.198 4.386,2.483 6.218,3.855 0.384,-1.298 0.588,-2.641 0.588,-4.023 0,-0.847 0.36,-2.787 -2.384,-7.633 -1.474,-2.414 -3.063,-4.756 -4.769,-7.012 l -0.063,-0.069 c 1.239,1.981 2.459,5.299 2.459,7.584 0.012,2.215 -0.55,4.73 -2.049,7.298 l 0,0 z m -135.43,0.835 c -1.078,-0.813 -2.007,-1.63 -2.791,-2.449 -3.696,2.553 -6.781,5.284 -9.106,8.175 -0.022,0.457 -0.033,0.923 -0.033,1.413 0,0.916 0.09,1.832 0.261,2.739 2.853,-3.183 6.75,-6.604 11.669,-9.878 z m -10.804,72.359 c 1.987,4.229 4.315,8.269 6.935,12.068 -1.417,-2.266 -2.602,-4.646 -3.51,-7.085 -1.412,-1.742 -2.555,-3.419 -3.425,-4.983 z m -4.999,-59.479 c -0.529,1.922 -1.003,3.859 -1.408,5.844 0.211,-0.758 0.555,-1.586 1.001,-2.475 -0.034,-1.174 0.144,-2.291 0.407,-3.369 z m -2.382,31.292 c -0.249,-0.832 -0.439,-1.652 -0.558,-2.483 0.149,2.093 0.358,4.178 0.649,6.218 -0.15,-1.25 -0.168,-2.497 -0.091,-3.735 z"
             id="path15"
             style="fill:#0c7bb5" /><path
             d="m 68.786,82.756 c 0.615,8.58 23.337,15.328 50.76,14.62 27.429,-0.703 48.429,-8.583 48.429,-17.178 0,-2.449 -1.84,-4.657 -5.091,-6.549 -12.722,-7.482 -27.535,-11.78 -43.359,-11.78 -16.517,0 -31.931,4.681 -45.012,12.778 -3.885,2.477 -5.932,5.27 -5.727,8.109 l 0,0 z M 93.3,125.201 c 9.021,1.147 32.903,4.403 51.394,2.886 37.325,-3.077 45.617,-16.116 45.617,-24.6 0,-2.312 -1.256,-5.702 -2.504,-7.66 -3.336,-4.389 -7.073,-8.448 -11.17,-12.118 1.06,1.146 1.409,2.602 1.465,3.499 0.347,5.769 -9.097,13.509 -28.157,19.841 -11.889,3.948 -27.634,7.731 -47.151,7.731 -32.905,0 -44.265,-12.478 -44.265,-20.283 0,-0.82 -0.162,-7.51 7.472,-13.84 -6.976,5.582 -13.053,12.239 -17.982,19.706 -0.527,0.893 -0.85,1.924 -0.85,3.119 -10e-4,7.979 19.505,18.327 46.131,21.719 z m -27.981,57.337 c 18.509,7.567 47.917,13.323 64.611,12.709 60.259,-2.146 73.598,-32.565 74.995,-41.438 0.161,-2.076 0.229,-4.175 0.229,-6.285 0,-7.007 -0.83,-13.801 -2.424,-20.321 0.64,2.814 0.815,5.562 0.815,6.939 0,2.938 0.564,29.255 -59.542,42.655 -36.01,8.021 -51.219,7.773 -75.979,-0.026 -21.69,-6.838 -33.525,-22.729 -33.852,-36.356 -0.182,2.338 -0.285,4.716 -0.285,7.108 0,1.934 0.07,3.864 0.193,5.779 1.588,11.298 16.331,23.136 31.239,29.236 z m 50.544,41.836 c -13.037,0 -41.411,-2.097 -59.873,-19.453 15.665,17.338 38.324,28.227 63.534,28.227 32.812,0 61.311,-18.456 75.69,-45.536 -4.462,7.756 -24.164,36.762 -79.351,36.762 z m 1.867,-17.245 c -10.819,1.197 -73.59,4.048 -82.722,-45.778 1.285,7.937 3.661,15.515 6.983,22.566 3.93,7.115 13.736,16.85 27.902,22.705 73.622,30.411 118.921,-5.778 127.659,-23.773 3.495,-7.734 5.89,-16.077 6.969,-24.847 -1.041,6.661 -7.836,40.369 -86.791,49.127 l 0,0 z M 37.07,124.318 c 1.373,-4.892 3.17,-9.599 5.344,-14.09 -0.988,2.291 -1.515,4.864 -1.515,8.534 0,20.873 45.114,41.449 100.409,26.346 21.553,-5.891 53.764,-17.187 53.764,-34.493 0,-0.859 0.358,-2.834 -2.499,-7.805 3.576,5.828 6.464,12.12 8.579,18.755 1.043,3.487 0.867,5.924 0.867,6.863 0,4.254 -5.271,30.231 -57.158,34.944 -4.495,0.403 -37.457,0.92 -66.112,-6.333 -19.057,-4.824 -38.199,-14.145 -41.812,-27.079 -0.56,-2.026 -0.312,-3.888 0.133,-5.642 l 0,0 z"
             id="path17"
             style="fill:#ffffff" /><path
             d="m 205.162,147.523 c 0,47.292 -38.334,85.61 -85.642,85.61 -47.291,0 -85.629,-38.318 -85.629,-85.61 0,-47.316 38.338,-85.646 85.629,-85.646 47.308,0 85.642,38.334 85.642,85.646 z"
             id="path19"
             style="fill:none" /><radialGradient
             cx="-2626.332"
             cy="3677.1113"
             r="84.733704"
             id="SVGID_1_"
             gradientUnits="userSpaceOnUse"
             gradientTransform="matrix(1,0,0,-1,2748.1406,3823.9805)"><stop
               id="stop22"
               style="stop-color:#ffffff;stop-opacity:0"
               offset="0" /><stop
               id="stop24"
               style="stop-color:#f9f9f9;stop-opacity:0.19"
               offset="0.38100001" /><stop
               id="stop26"
               style="stop-color:#ebeae9;stop-opacity:0.259"
               offset="0.51800001" /><stop
               id="stop28"
               style="stop-color:#d9d7d7;stop-opacity:0.308"
               offset="0.616" /><stop
               id="stop30"
               style="stop-color:#c1bebe;stop-opacity:0.347"
               offset="0.69499999" /><stop
               id="stop32"
               style="stop-color:#a5a2a1;stop-opacity:0.38100001"
               offset="0.76200002" /><stop
               id="stop34"
               style="stop-color:#858281;stop-opacity:0.41100001"
               offset="0.82300001" /><stop
               id="stop36"
               style="stop-color:#636160;stop-opacity:0.43799999"
               offset="0.87699997" /><stop
               id="stop38"
               style="stop-color:#434140;stop-opacity:0.463"
               offset="0.92699999" /><stop
               id="stop40"
               style="stop-color:#222121;stop-opacity:0.48500001"
               offset="0.97100002" /><stop
               id="stop42"
               style="stop-color:#010101;stop-opacity:0.5"
               offset="1" /></radialGradient><path
             d="m 119.524,60.593 c 47.296,0 85.638,38.628 85.638,86.273 0,47.648 -38.342,86.279 -85.638,86.279 -47.295,0 -85.636,-38.631 -85.636,-86.279 0,-47.645 38.341,-86.273 85.636,-86.273 z"
             id="path44"
             style="opacity:0.4;fill:url(#SVGID_1_)" /></g><rect
           width="231.131"
           height="225.467"
           x="3.7030001"
           y="6.8239999"
           id="rect46"
           style="fill:none" /><g
           transform="translate(1313.9741,1568.4248)"
           id="g3208"><path
             d="m -1199.088,-1527.523 v -29.326 c 0,-2.625 2.126,-4.752 4.752,-4.752 2.624,0 4.751,2.127 4.751,4.752 v 29.326 c 0,2.623 -2.127,4.751 -4.751,4.751 -2.626,0 -4.752,-2.129 -4.752,-4.751"
             id="path3210"
             style="fill:#231f20" /></g><g
           transform="translate(1451.0591,1526.2722)"
           id="g3212"><path
             d="m -1284.676,-1469.536 c -1.705,-0.817 -2.701,-2.519 -2.699,-4.291 0,-0.688 0.148,-1.386 0.466,-2.046 l 12.659,-26.453 c 0.814,-1.706 2.517,-2.702 4.289,-2.701 0.688,-10e-4 1.387,0.15 2.048,0.467 1.705,0.814 2.701,2.515 2.701,4.287 0,0.688 -0.148,1.388 -0.464,2.05 l -12.661,26.451 c -0.818,1.704 -2.518,2.702 -4.291,2.702 -0.688,0 -1.385,-0.15 -2.048,-0.466"
             id="path3214"
             style="fill:#231f20" /></g><g
           transform="translate(1196.1555,1526.2722)"
           id="g3216"><path
             d="m -1125.528,-1469.536 c -0.663,0.315 -1.361,0.466 -2.048,0.466 -1.773,0 -3.473,-0.998 -4.291,-2.702 l -12.66,-26.451 c -0.316,-0.662 -0.466,-1.362 -0.466,-2.05 0,-1.772 0.997,-3.473 2.701,-4.287 0.661,-0.317 1.361,-0.469 2.048,-0.467 1.772,-10e-4 3.475,0.995 4.289,2.701 l 12.66,26.453 c 0.316,0.661 0.468,1.358 0.467,2.046 0,1.772 -0.995,3.474 -2.7,4.291"
             id="path3218"
             style="fill:#231f20" /></g><g
           transform="translate(1313.9741,1568.4248)"
           id="g3220"><path
             d="m -1199.088,-1527.523 v -29.326 c 0,-2.625 2.126,-4.752 4.752,-4.752 2.624,0 4.751,2.127 4.751,4.752 v 29.326 c 0,2.623 -2.127,4.751 -4.751,4.751 -2.626,0 -4.752,-2.129 -4.752,-4.751"
             id="path3222"
             style="fill:#0c7bb5" /></g><g
           transform="translate(1451.0591,1526.2722)"
           id="g3224"><path
             d="m -1284.676,-1469.536 c -1.705,-0.817 -2.701,-2.519 -2.699,-4.291 0,-0.688 0.148,-1.386 0.466,-2.046 l 12.659,-26.453 c 0.814,-1.706 2.517,-2.702 4.289,-2.701 0.688,-10e-4 1.387,0.15 2.048,0.467 1.705,0.814 2.701,2.515 2.701,4.287 0,0.688 -0.148,1.388 -0.464,2.05 l -12.661,26.451 c -0.818,1.704 -2.518,2.702 -4.291,2.702 -0.688,0 -1.385,-0.15 -2.048,-0.466"
             id="path3226"
             style="fill:#0c7bb5" /></g><g
           transform="translate(1196.1555,1526.2722)"
           id="g3228"><path
             d="m -1125.528,-1469.536 c -0.663,0.315 -1.361,0.466 -2.048,0.466 -1.773,0 -3.473,-0.998 -4.291,-2.702 l -12.66,-26.451 c -0.316,-0.662 -0.466,-1.362 -0.466,-2.05 0,-1.772 0.997,-3.473 2.701,-4.287 0.661,-0.317 1.361,-0.469 2.048,-0.467 1.772,-10e-4 3.475,0.995 4.289,2.701 l 12.66,26.453 c 0.316,0.661 0.468,1.358 0.467,2.046 0,1.772 -0.995,3.474 -2.7,4.291"
             id="path3230"
             style="fill:#0c7bb5" /></g><g
           transform="translate(1543.5724,1447.9526)"
           id="g3232"><path
             d="m -1342.435,-1361.794 c -0.487,-0.78 -0.719,-1.648 -0.719,-2.505 0,-1.588 0.798,-3.141 2.246,-4.04 l 24.909,-15.475 c 0.778,-0.486 1.647,-0.716 2.503,-0.716 1.589,0 3.143,0.797 4.044,2.247 0.481,0.779 0.713,1.647 0.713,2.503 0,1.587 -0.796,3.141 -2.243,4.041 l -24.912,15.475 c -0.778,0.484 -1.647,0.715 -2.501,0.715 -1.588,-10e-4 -3.142,-0.798 -4.04,-2.245"
             id="path3234"
             style="fill:#0c7bb5" /></g><g
           transform="translate(1107.7079,1447.9526)"
           id="g3236"><path
             d="m -1070.307,-1361.794 c -0.899,1.447 -2.453,2.244 -4.04,2.244 -0.855,0 -1.723,-0.231 -2.502,-0.715 l -24.911,-15.475 c -1.448,-0.9 -2.243,-2.453 -2.243,-4.041 0,-0.856 0.229,-1.724 0.713,-2.503 0.9,-1.449 2.455,-2.247 4.043,-2.247 0.856,0 1.724,0.23 2.502,0.716 l 24.91,15.475 c 1.448,0.899 2.246,2.452 2.246,4.04 0,0.857 -0.231,1.726 -0.718,2.506"
             id="path3238"
             style="fill:#0c7bb5" /></g></g></g></switch>
</svg>
