<?xml version="1.0" encoding="UTF-8" standalone="no"?>
<!-- Created with Inkscape (http://www.inkscape.org/) -->

<svg
   xmlns:dc="http://purl.org/dc/elements/1.1/"
   xmlns:cc="http://creativecommons.org/ns#"
   xmlns:rdf="http://www.w3.org/1999/02/22-rdf-syntax-ns#"
   xmlns:svg="http://www.w3.org/2000/svg"
   xmlns="http://www.w3.org/2000/svg"
   version="1.1"
   width="24"
   height="24"
   id="svg3914">
  <title
     xml:lang="en"
     id="title3916">AT&amp;T</title>
  <defs
     id="defs3055" />
  <metadata
     id="metadata3954">
    <rdf:RDF>
      <cc:Work
         rdf:about="">
        <dc:format>image/svg+xml</dc:format>
        <dc:type
           rdf:resource="http://purl.org/dc/dcmitype/StillImage" />
        <dc:title>AT&amp;T</dc:title>
      </cc:Work>
    </rdf:RDF>
  </metadata>
  <path
     d="M 3.3332732,9.5639647 C 3.4765018,9.0485985 3.6660828,8.5540884 3.8936727,8.0818244 3.7912341,8.3237493 3.7365384,8.5927874 3.7365384,8.9781532 c 0,2.1930868 4.7404525,4.3567038 10.5530346,2.7698608 2.263848,-0.619876 5.650349,-1.8058667 5.650349,-3.6249423 0,-0.09107 0.03893,-0.2984675 -0.262355,-0.8205531 0.376381,0.6131554 0.679526,1.2719618 0.902944,1.9717851 0.107074,0.3649736 0.09178,0.6226565 0.09178,0.7204457 0,0.4472366 -0.557155,3.1760436 -6.008653,3.6728706 -0.472329,0.04125 -3.935776,0.09594 -6.9482138,-0.665527 C 5.7111477,12.495842 3.6999201,11.515358 3.3193675,10.154179 3.2600365,9.9421473 3.2878479,9.746104 3.3332732,9.5639647 z m 8.4778408,8.7025563 c -1.135632,0.125132 -7.7348129,0.424065 -8.6947699,-4.813019 0.1348854,0.836544 0.385188,1.631839 0.734221,2.373373 0.4129993,0.747559 1.4434116,1.771338 2.9322481,2.387275 7.7394468,3.196474 12.5002958,-0.608985 13.4171448,-2.499433 0.368965,-0.813833 0.620195,-1.69116 0.734222,-2.612052 -0.109856,0.699822 -0.823218,4.2425 -9.123066,5.163856 z m -0.196071,1.812122 c -1.370638,0 -4.3534101,-0.221069 -6.2937185,-2.044778 C 6.9677595,19.855257 9.350733,21 12.000231,21 c 3.447223,0 6.443901,-1.938183 7.95545,-4.785674 -0.469548,0.81615 -2.540107,3.864317 -8.340638,3.864317 z M 6.3016763,15.680421 c 1.9472616,0.796223 5.0371077,1.400573 6.7929347,1.338469 6.332192,-0.227558 7.734812,-3.424495 7.882677,-4.356512 C 20.991195,12.443164 21,12.222093 21,12.000831 c 0,-0.735973 -0.08622,-1.449932 -0.255403,-2.1360816 0.06861,0.2966136 0.08714,0.5860436 0.08714,0.7317996 0,0.30797 0.05934,3.073388 -6.257565,4.482303 -3.784665,0.843957 -5.3833587,0.816613 -7.9874325,-0.0023 C 4.3089897,14.355873 3.0639661,12.687423 3.0301288,11.255838 3.008807,11.502165 3,11.750348 3,12.000848 c 0,0.205505 0.00464,0.406182 0.020396,0.609022 0.1645506,1.187999 1.715036,2.43285 3.2812812,3.070568 z M 9.2436584,9.6550344 c 0.9483696,0.1209625 3.4588106,0.4632266 5.4014376,0.3033338 3.924188,-0.3237261 4.795147,-1.6939415 4.795147,-2.5833185 0,-0.2437792 -0.13164,-0.599252 -0.264208,-0.8066497 -0.349032,-0.4609097 -0.743491,-0.8870603 -1.171786,-1.2724262 0.111246,0.120963 0.147864,0.2739041 0.152499,0.3672914 0.03615,0.6059719 -0.955321,1.4200369 -2.959597,2.0857951 -1.249658,0.4147955 -2.904899,0.8115164 -4.955063,0.8115164 -3.4592748,0 -4.6514564,-1.3106607 -4.6514564,-2.1312148 0,-0.086898 -0.018541,-0.7892697 0.7842814,-1.4547961 -0.7342209,0.5858118 -1.372956,1.2858655 -1.8902481,2.0725867 -0.057014,0.093156 -0.088997,0.2002142 -0.088997,0.3278972 0,0.8367743 2.0497,1.9245116 4.8479898,2.2799847 z M 6.6664689,5.1958672 c 0.064434,0.9002678 2.4534288,1.6093602 5.3356161,1.5365973 2.882652,-0.075311 5.08995,-0.9030498 5.08995,-1.8056353 0,-0.2576829 -0.193753,-0.4903394 -0.536297,-0.6886995 C 15.219864,3.4511769 13.662426,3 12.000231,3 10.262484,3 8.6433964,3.4926561 7.2685861,4.3431033 6.8602219,4.6031036 6.6460746,4.8969361 6.6664689,5.1958672 z"
     id="forestripes"
     style="fill:#3c3c3c;fill-opacity:1" />
</svg>
