<?xml version="1.0" encoding="UTF-8" standalone="no"?>
<!-- Created with Inkscape (http://www.inkscape.org/) -->

<svg
   xmlns:dc="http://purl.org/dc/elements/1.1/"
   xmlns:cc="http://creativecommons.org/ns#"
   xmlns:rdf="http://www.w3.org/1999/02/22-rdf-syntax-ns#"
   xmlns:svg="http://www.w3.org/2000/svg"
   xmlns="http://www.w3.org/2000/svg"
   version="1.1"
   width="24"
   height="24"
   id="svg2">
  <title
     id="title4"
     xml:lang="en">AT&amp;T</title>
  <metadata
     id="metadata42">
    <rdf:RDF>
      <cc:Work
         rdf:about="">
        <dc:format>image/svg+xml</dc:format>
        <dc:type
           rdf:resource="http://purl.org/dc/dcmitype/StillImage" />
        <dc:title>AT&amp;T</dc:title>
      </cc:Work>
    </rdf:RDF>
  </metadata>
  <defs
     id="defs6">
    <radialGradient
       cx="124.32605"
       cy="127.5602"
       r="136.53178"
       fx="169.83665"
       fy="104.8049"
       id="fore_stripe"
       gradientUnits="userSpaceOnUse"
       gradientTransform="matrix(0.07910246,0,0,0.07910246,27.487539,-8.259819)">
      <stop
         id="stop9"
         style="stop-color:#ffffff;stop-opacity:1"
         offset="0" />
      <stop
         id="stop11"
         style="stop-color:#ffffff;stop-opacity:1"
         offset="0.55000001" />
      <stop
         id="stop13"
         style="stop-color:#b1b4b6;stop-opacity:1"
         offset="1" />
    </radialGradient>
    <radialGradient
       cx="116.75622"
       cy="137.94637"
       r="127.9268"
       fx="159.39848"
       fy="116.62523"
       id="Clear_grade"
       gradientUnits="userSpaceOnUse"
       gradientTransform="matrix(0.08422111,0,0,0.07429491,2.165505,1.9096725)">
      <stop
         id="stop23"
         style="stop-color:#000000;stop-opacity:1"
         offset="0" />
      <stop
         id="stop25"
         style="stop-color:#000000;stop-opacity:1"
         offset="0.69999999" />
      <stop
         id="stop27"
         style="stop-color:#616161;stop-opacity:1"
         offset="1" />
    </radialGradient>
  </defs>
  <path
     d="m 23,12.001049 a 11,11 0 0 1 -21.9999999,0 11,11 0 1 1 21.9999999,0 z"
     id="path3908"
     style="fill:#ffffff;fill-opacity:1;stroke:none" />
  <path
     d="m 20.831744,10.596548 c 0,-0.145756 -0.01854,-0.435188 -0.08714,-0.731798 -0.04775,-0.19836 -0.102438,-0.39672 -0.164087,-0.590445 0.107074,0.3649725 0.09178,0.6226575 0.09178,0.7204425 0,0.4472405 -0.557156,3.1760475 -6.008654,3.6728705 -0.47233,0.04125 -3.935776,0.09594 -6.948214,-0.66552 C 5.7111498,12.49584 3.6999219,11.515358 3.3193688,10.154183 3.2600362,9.94215 3.2878462,9.7461075 3.3332738,9.5639625 3.1803112,10.106445 3.0778725,10.674413 3.0301297,11.25582 c 0.03384,1.431585 1.2788611,3.100035 3.5566143,3.820717 2.6040747,0.818933 4.202765,0.84627 7.987434,0.0023 6.316895,-1.40892 6.257565,-4.174335 6.257565,-4.482307 z m -14.048929,7.6176 C 5.2939787,17.59821 4.2635664,16.57443 3.8505668,15.826875 c 0.3805523,0.80688 0.8779133,1.552582 1.4707591,2.206987 1.9403087,1.823716 4.9230821,2.044785 6.2937201,2.044785 5.800532,0 7.87109,-3.048172 8.340639,-3.864322 0.08668,-0.164063 0.168722,-0.330442 0.244278,-0.499605 -0.916851,1.890442 -5.677699,5.695905 -13.417148,2.499428 z m 6.311798,-1.19526 c -1.755827,0.0621 -4.8456731,-0.542243 -6.792935,-1.338466 -1.5662453,-0.637717 -3.116731,-1.882567 -3.2812817,-3.070567 0.01854,0.28518 0.050528,0.567427 0.09595,0.843645 0.9599566,5.237085 7.5591377,4.938158 8.6947707,4.81302 8.299849,-0.921353 9.013211,-4.46403 9.123066,-5.163855 0.01575,-0.146453 0.03152,-0.291983 0.04311,-0.440288 -0.147863,0.932018 -1.550486,4.128953 -7.882677,4.356511 M 5.5906337,6.42936 c 0,0.8205525 1.1921813,2.131215 4.6514563,2.131215 2.050164,0 3.705406,-0.39672 4.955064,-0.811515 C 17.20143,7.0833 18.192906,6.269235 18.15675,5.663265 18.15215,5.569875 18.1155,5.416935 18.004251,5.295975 17.55927,4.8969375 17.07396,4.54146 16.555741,4.23813 c 0.342544,0.19836 0.536297,0.4310175 0.536297,0.6887025 0,0.90258 -2.207298,1.7303175 -5.08995,1.8056325 C 9.1199002,6.805215 6.7309008,6.096135 6.6664713,5.195865 6.6460788,4.8969375 6.860224,4.6031025 7.2685878,4.3431 6.956173,4.5366 6.657664,4.746315 6.3749148,4.9745625 5.5720922,5.64009 5.5906337,6.342465 5.5906337,6.42936 z M 3.7365398,8.9781525 c 0,-0.385365 0.054697,-0.654405 0.1571348,-0.896325 C 4.0693501,7.7240325 4.2654204,7.3776 4.4846664,7.04715 c -0.057015,0.093158 -0.088997,0.20022 -0.088997,0.3279 0,0.836775 2.0497006,1.924515 4.8479909,2.279985 0.9483697,0.12096 3.4588117,0.46323 5.4014377,0.30333 3.924187,-0.3237225 4.795149,-1.693935 4.795149,-2.583315 0,-0.24378 -0.131641,-0.59925 -0.264208,-0.8066475 0.177992,0.2368275 0.346252,0.4806075 0.501531,0.734115 0.301291,0.52209 0.262355,0.7294875 0.262355,0.8205525 0,1.81908 -3.386501,3.00507 -5.650349,3.624945 C 8.4769935,13.334857 3.7365398,11.171242 3.7365398,8.9781525 z"
     id="backclear"
     style="fill:#000000;fill-opacity:1" />
</svg>
